<svg width="40" height="95" viewBox="0 0 40 95" fill="none" xmlns="http://www.w3.org/2000/svg">
<path d="M6.93689 83.9316C4.43689 83.9316 2.43689 85.9316 2.43689 88.4316C2.43689 90.9316 4.43689 92.9316 6.93689 92.9316C9.43689 92.9316 11.4369 90.9316 11.4369 88.4316C11.4369 85.9316 9.43689 83.9316 6.93689 83.9316Z" fill="#6016FC"/>
<path d="M11.4369 88.4316C11.4369 85.9316 9.43689 83.9316 6.93689 83.9316C4.43689 83.9316 2.43689 85.9316 2.43689 88.4316C2.43689 90.9316 4.43689 92.9316 6.93689 92.9316C9.43689 92.9316 11.4369 90.9316 11.4369 88.4316ZM11.4369 88.4316V88.4316C18.0806 88.4316 23.4664 83.0458 23.4664 76.4021V18.8168C23.4664 9.68784 30.8668 2.28735 39.9958 2.28735V2.28735" stroke="#222234" stroke-width="3" stroke-dasharray="0"/>
</svg>
